<?xml version="1.0" encoding="UTF-8" standalone="no"?>
<svg
   xmlns:dc="http://purl.org/dc/elements/1.1/"
   xmlns:cc="http://creativecommons.org/ns#"
   xmlns:rdf="http://www.w3.org/1999/02/22-rdf-syntax-ns#"
   xmlns:svg="http://www.w3.org/2000/svg"
   xmlns="http://www.w3.org/2000/svg"
   width="205"
   height="256"
   viewBox="0 0 205 256"
   id="svg2"
   version="1.1">
  <defs
     id="defs" />
  <metadata
     id="metadata">
    <rdf:RDF>
      <cc:Work
         rdf:about="">
        <dc:format>image/svg+xml</dc:format>
        <dc:type
           rdf:resource="http://purl.org/dc/dcmitype/StillImage" />
        <dc:title></dc:title>
      </cc:Work>
    </rdf:RDF>
  </metadata>
  <g
     id="layer1" />
  <g
     transform="matrix(0.4575427,0,0,0.4578857,23.697982,1040.4832)"
     id="g982">
    <g
       id="path942"
       style="opacity:1"
       transform="translate(0,43.679022)">
      <path
         id="path880"
         style="color:#000000;font-style:normal;font-variant:normal;font-weight:normal;font-stretch:normal;font-size:medium;line-height:normal;font-family:sans-serif;font-variant-ligatures:normal;font-variant-position:normal;font-variant-caps:normal;font-variant-numeric:normal;font-variant-alternates:normal;font-variant-east-asian:normal;font-feature-settings:normal;font-variation-settings:normal;text-indent:0;text-align:start;text-decoration:none;text-decoration-line:none;text-decoration-style:solid;text-decoration-color:#000000;letter-spacing:normal;word-spacing:normal;text-transform:none;writing-mode:lr-tb;direction:ltr;text-orientation:mixed;dominant-baseline:auto;baseline-shift:baseline;text-anchor:start;white-space:normal;shape-padding:0;shape-margin:0;inline-size:0;clip-rule:nonzero;display:inline;overflow:visible;visibility:visible;isolation:auto;mix-blend-mode:normal;color-interpolation:sRGB;color-interpolation-filters:linearRGB;solid-color:#000000;solid-opacity:1;vector-effect:none;fill:#ffffff;fill-opacity:1;fill-rule:nonzero;stroke:none;stroke-width:1;stroke-linecap:round;stroke-linejoin:round;stroke-miterlimit:4;stroke-dasharray:none;stroke-dashoffset:0;stroke-opacity:1;marker:none;paint-order:stroke fill markers;color-rendering:auto;image-rendering:auto;shape-rendering:auto;text-rendering:auto;enable-background:accumulate;stop-color:#000000;stop-opacity:1"
         d="m 172.21597,-2303.0507 a 11.068057,11.068057 0 0 0 -2.4716,0.2815 c -62.38582,14.3769 -118.741127,18.0327 -176.0038902,21.959 a 11.068057,11.068057 0 0 0 -10.2833638,10.2543 l -22.214457,311.0254 a 11.068057,11.068057 0 0 0 -0.02988,0.7891 c 0,35.3996 10.254998,62.9058 26.560023,83.7878 16.3050245,20.8819 38.159709,35.0856 60.850706,46.2511 45.381997,22.3308 94.844972,34.5844 115.780692,55.5202 a 11.068057,11.068057 0 0 0 15.64916,0 c 20.93568,-20.9358 70.39867,-33.1894 115.78069,-55.5202 22.691,-11.1655 44.54568,-25.3692 60.85069,-46.2511 16.30504,-20.882 26.55578,-48.3882 26.55578,-83.7878 a 11.068057,11.068057 0 0 0 -0.0256,-0.7891 l -22.21873,-311.0254 a 11.068057,11.068057 0 0 0 -10.27909,-10.2543 c -57.26278,-3.9263 -113.61807,-7.5821 -176.0039,-21.959 a 11.068057,11.068057 0 0 0 -2.49721,-0.2815 z m 0.0128,11.0648 c 63.40617,14.612 120.49999,18.2906 177.73272,22.2149 l 22.21448,311.0296 c 0,133.2984 -149.96046,127.7449 -199.9472,177.7318 -49.98678,-49.9869 -199.947192,-44.4334 -199.947192,-177.7318 l 22.2144584,-311.0296 c 57.2327406,-3.9243 114.3265436,-7.6029 177.7327336,-22.2149 z" />
    </g>
    <path
       style="color:#000000;clip-rule:nonzero;display:inline;overflow:visible;visibility:visible;opacity:1;isolation:auto;mix-blend-mode:normal;color-interpolation:sRGB;color-interpolation-filters:linearRGB;solid-color:#000000;solid-opacity:1;vector-effect:none;fill:#244676;fill-opacity:1;fill-rule:nonzero;stroke:none;stroke-width:18;stroke-linecap:round;stroke-linejoin:round;stroke-miterlimit:4;stroke-dasharray:none;stroke-dashoffset:0;stroke-opacity:1;marker:none;paint-order:stroke fill markers;color-rendering:auto;image-rendering:auto;shape-rendering:auto;text-rendering:auto;enable-background:accumulate"
       d="m 172.22877,-2248.307 c -63.40619,14.612 -120.498,18.2921 -177.73074,22.2164 l -22.21634,311.0296 c 0,133.2984 149.9603,127.7443 199.94708,177.7312 49.98675,-49.9869 199.94709,-44.4328 199.94709,-177.7312 l -22.21635,-311.0296 c -57.23275,-3.9243 -114.32456,-7.6044 -177.73074,-22.2164 z"
       id="path944" />
    <g
       aria-label="AGT-O"
       style="font-style:normal;font-variant:normal;font-weight:normal;font-stretch:normal;font-size:82.86052704px;line-height:100%;font-family:HandelGotDLig;-inkscape-font-specification:'HandelGotDLig, Normal';font-variant-ligatures:normal;font-variant-position:normal;font-variant-caps:normal;font-variant-numeric:normal;font-variant-alternates:normal;font-feature-settings:normal;text-indent:0;text-align:center;text-decoration:none;text-decoration-line:none;text-decoration-style:solid;text-decoration-color:#000000;letter-spacing:5.57999992px;word-spacing:0px;text-transform:none;writing-mode:lr-tb;direction:ltr;text-orientation:mixed;dominant-baseline:auto;baseline-shift:baseline;text-anchor:middle;white-space:normal;shape-padding:0;opacity:1;vector-effect:none;fill:#ffffff;fill-opacity:1;stroke:none;stroke-width:0.99999994px;stroke-linecap:butt;stroke-linejoin:miter;stroke-miterlimit:4;stroke-dasharray:none;stroke-dashoffset:0;stroke-opacity:1"
       id="text948">
      <path
         d="m 42.95131,-2143.8503 22.859472,-55.2269 h 11.611802 l 21.969368,55.2269 h -9.386544 l -5.623834,-14.444 h -26.17713 l -5.86659,14.444 z m 28.523765,-48.6321 -10.600321,27.1482 h 20.674673 z"
         style="font-style:normal;font-variant:normal;font-weight:normal;font-stretch:normal;font-size:82.86052704px;font-family:HandelGotDLig;-inkscape-font-specification:'HandelGotDLig, Normal';font-variant-ligatures:normal;font-variant-caps:normal;font-variant-numeric:normal;font-feature-settings:normal;text-align:center;letter-spacing:5.57999992px;writing-mode:lr-tb;text-anchor:middle;fill:#ffffff;stroke-width:0.99999994px"
         id="path1539" />
      <path
         d="m 127.58867,-2175.5299 h 25.85345 v 31.6796 h -20.43191 q -8.25369,0 -12.66375,-1.3757 -5.58337,-1.7397 -9.50792,-6.7566 -5.0574,-6.514 -5.0574,-19.2182 0,-18.2066 10.15527,-24.4374 3.15582,-1.9016 7.0399,-2.6703 3.88409,-0.7687 10.43849,-0.7687 h 20.02732 v 7.0399 h -19.33951 q -5.38108,0 -7.56588,0.4046 -2.14434,0.3641 -4.32914,1.6993 -7.03991,4.3291 -7.03991,18.0448 0,5.3811 0.72827,8.7392 0.72826,3.3581 2.54893,6.1498 2.30618,3.5604 5.54292,4.8551 3.23673,1.2543 10.11481,1.2543 h 10.5194 v -17.5998 h -17.03334 z"
         style="font-style:normal;font-variant:normal;font-weight:normal;font-stretch:normal;font-size:82.86052704px;font-family:HandelGotDLig;-inkscape-font-specification:'HandelGotDLig, Normal';font-variant-ligatures:normal;font-variant-caps:normal;font-variant-numeric:normal;font-feature-settings:normal;text-align:center;letter-spacing:5.57999992px;writing-mode:lr-tb;text-anchor:middle;fill:#ffffff;stroke-width:0.99999994px"
         id="path1541" />
      <path
         d="m 183.19652,-2192.0373 h -19.09677 v -7.0399 h 47.0541 v 7.0399 h -19.13722 v 48.187 h -8.82011 z"
         style="font-style:normal;font-variant:normal;font-weight:normal;font-stretch:normal;font-size:82.86052704px;font-family:HandelGotDLig;-inkscape-font-specification:'HandelGotDLig, Normal';font-variant-ligatures:normal;font-variant-caps:normal;font-variant-numeric:normal;font-feature-settings:normal;text-align:center;letter-spacing:5.57999992px;writing-mode:lr-tb;text-anchor:middle;fill:#ffffff;stroke-width:0.99999994px"
         id="path1543" />
      <path
         d="m 240.36205,-2169.1374 v 6.3521 h -27.63366 v -6.3521 z"
         style="font-style:normal;font-variant:normal;font-weight:normal;font-stretch:normal;font-size:82.86052704px;font-family:HandelGotDLig;-inkscape-font-specification:'HandelGotDLig, Normal';font-variant-ligatures:normal;font-variant-caps:normal;font-variant-numeric:normal;font-feature-settings:normal;text-align:center;letter-spacing:5.57999992px;writing-mode:lr-tb;text-anchor:middle;fill:#ffffff;stroke-width:0.99999994px"
         id="path1545" />
      <path
         d="m 275.98303,-2199.8864 q 15.61727,0 21.84799,9.427 4.53144,6.9185 4.53144,19.1372 0,15.0104 -7.56588,21.8076 -7.2422,6.4734 -19.62273,6.4734 -14.16074,0 -20.63422,-8.0513 -2.58939,-3.1963 -4.1673,-8.6988 -1.53745,-5.5429 -1.53745,-11.5713 0,-6.1094 1.61837,-11.5309 1.65883,-5.462 4.49098,-8.7392 3.51995,-4.1268 8.65827,-6.1498 5.13833,-2.023 12.38053,-2.1039 z m -0.0809,7.0399 q -11.44996,0 -15.33405,7.9705 -2.34663,4.8146 -2.34663,13.3515 0,10.2767 3.43903,15.415 4.04593,6.0284 14.12028,6.0284 11.44996,0 15.17221,-8.0514 2.02296,-4.41 2.02296,-12.9469 0,-10.4385 -2.99398,-15.2127 -4.08638,-6.4735 -14.07982,-6.5544 z"
         style="font-style:normal;font-variant:normal;font-weight:normal;font-stretch:normal;font-size:82.86052704px;font-family:HandelGotDLig;-inkscape-font-specification:'HandelGotDLig, Normal';font-variant-ligatures:normal;font-variant-caps:normal;font-variant-numeric:normal;font-feature-settings:normal;text-align:center;letter-spacing:5.57999992px;writing-mode:lr-tb;text-anchor:middle;fill:#ffffff;stroke-width:0.99999994px"
         id="path1547" />
    </g>
    <g
       transform="matrix(0.9964436,0,0,0.9964436,-740.84622,-1597.0636)"
       style="display:inline;stroke-width:1.00356901"
       id="g970">
      <path
         id="path950"
         style="font-style:normal;font-variant:normal;font-weight:normal;font-stretch:normal;font-size:58.66666794px;line-height:62.00000048%;font-family:'Gothic725 Bd BT';-inkscape-font-specification:'Gothic725 Bd BT, Normal';font-variant-ligatures:normal;font-variant-caps:normal;font-variant-numeric:normal;font-feature-settings:normal;text-align:center;letter-spacing:0px;word-spacing:0px;writing-mode:lr-tb;text-anchor:middle;fill:#ffffff;fill-opacity:1;stroke:none;stroke-width:1.00356889px;stroke-linecap:butt;stroke-linejoin:miter;stroke-opacity:1"
         d="m 780.02714,-254.98167 17.42663,-33.25973 5.68129,2.97674 -6.94173,13.24869 14.42175,7.55636 6.94173,-13.24868 5.6583,2.9647 -17.42663,33.25972 -5.6583,-2.96469 7.74919,-14.78977 -14.42175,-7.55636 -7.74919,14.78977 z" />
      <path
         id="path952"
         style="font-style:normal;font-variant:normal;font-weight:normal;font-stretch:normal;font-size:58.66666794px;line-height:62.00000048%;font-family:'Gothic725 Bd BT';-inkscape-font-specification:'Gothic725 Bd BT, Normal';font-variant-ligatures:normal;font-variant-caps:normal;font-variant-numeric:normal;font-feature-settings:normal;text-align:center;letter-spacing:0px;word-spacing:0px;writing-mode:lr-tb;text-anchor:middle;fill:#ffffff;fill-opacity:1;stroke:none;stroke-width:1.00356889px;stroke-linecap:butt;stroke-linejoin:miter;stroke-opacity:1"
         d="m 822.48876,-253.45528 11.31393,3.83094 q 0.5948,-2.48531 -0.43837,-4.53491 -1.02485,-2.07419 -3.16466,-2.79874 -2.1644,-0.73287 -4.36157,0.25033 -2.16424,0.96694 -3.34933,3.25238 z m 14.13038,15.99752 q -3.23912,2.52205 -6.5764,3.22887 -3.32894,0.68223 -6.72312,-0.46705 -5.4848,-1.85718 -7.64564,-6.81083 -2.12791,-4.9699 -0.0459,-11.11878 1.95711,-5.77994 6.51878,-8.40249 4.58627,-2.61422 9.62835,-0.90695 5.38641,1.82386 7.28347,6.98976 1.90539,5.1413 -0.38485,11.90507 l -0.0999,0.29514 -17.68416,-5.98793 q -0.72089,3.10059 0.51582,5.52067 1.26963,2.40382 4.07352,3.35322 1.84466,0.62461 3.83402,0.17419 1.98935,-0.45044 3.62198,-1.87153 z" />
      <path
         id="path954"
         style="font-style:normal;font-variant:normal;font-weight:normal;font-stretch:normal;font-size:58.66666794px;line-height:62.00000048%;font-family:'Gothic725 Bd BT';-inkscape-font-specification:'Gothic725 Bd BT, Normal';font-variant-ligatures:normal;font-variant-caps:normal;font-variant-numeric:normal;font-feature-settings:normal;text-align:center;letter-spacing:0px;word-spacing:0px;writing-mode:lr-tb;text-anchor:middle;fill:#ffffff;fill-opacity:1;stroke:none;stroke-width:1.00356889px;stroke-linecap:butt;stroke-linejoin:miter;stroke-opacity:1"
         d="m 839.29584,-230.06717 5.18687,-26.55603 5.63232,1.10009 -0.48782,2.49759 q 1.74139,-1.19443 3.59329,-1.6 1.85687,-0.43105 3.81926,-0.0478 2.37017,0.46293 3.98551,1.8103 1.64084,1.35234 2.36836,3.45232 2.08087,-1.5779 4.30888,-2.14813 2.25847,-0.59075 4.5267,-0.14772 3.8993,0.7616 5.62872,3.69226 1.75989,2.91016 0.91367,7.24272 l -3.46455,17.738 -5.63233,-1.10009 3.26046,-16.6931 q 0.50774,-2.59953 -0.28331,-4.10339 -0.78606,-1.52934 -2.82491,-1.92757 -2.3192,-0.45297 -4.24277,0.99691 -1.92358,1.44988 -2.44127,4.10039 l -3.07629,15.75013 -5.47941,-1.07023 3.26046,-16.6931 q 0.50774,-2.59953 -0.28331,-4.10339 -0.78606,-1.52934 -2.82491,-1.92756 -2.3192,-0.45298 -4.26826,0.99192 -1.94906,1.44491 -2.46675,4.09542 l -3.07629,15.75012 z" />
      <path
         id="path956"
         style="font-style:normal;font-variant:normal;font-weight:normal;font-stretch:normal;font-size:58.66666794px;line-height:62.00000048%;font-family:'Gothic725 Bd BT';-inkscape-font-specification:'Gothic725 Bd BT, Normal';font-variant-ligatures:normal;font-variant-caps:normal;font-variant-numeric:normal;font-feature-settings:normal;text-align:center;letter-spacing:0px;word-spacing:0px;writing-mode:lr-tb;text-anchor:middle;fill:#ffffff;fill-opacity:1;stroke:none;stroke-width:1.00356889px;stroke-linecap:butt;stroke-linejoin:miter;stroke-opacity:1"
         d="m 881.76239,-222.69175 2.93518,-37.43369 5.7212,0.44859 -1.72133,21.95283 11.51524,-10.66193 6.88615,0.53995 -10.47417,9.67563 8.6697,17.32377 -6.88614,-0.53995 -6.28998,-13.12594 -3.95668,3.62284 -0.67798,8.64651 z" />
      <path
         id="path958"
         style="font-style:normal;font-variant:normal;font-weight:normal;font-stretch:normal;font-size:58.66666794px;line-height:62.00000048%;font-family:'Gothic725 Bd BT';-inkscape-font-specification:'Gothic725 Bd BT, Normal';font-variant-ligatures:normal;font-variant-caps:normal;font-variant-numeric:normal;font-feature-settings:normal;text-align:center;letter-spacing:0px;word-spacing:0px;writing-mode:lr-tb;text-anchor:middle;fill:#ffffff;fill-opacity:1;stroke:none;stroke-width:1.00356889px;stroke-linecap:butt;stroke-linejoin:miter;stroke-opacity:1"
         d="m 912.32936,-237.68901 11.94481,-0.0505 q -0.24446,-2.54377 -1.88717,-4.14682 -1.64283,-1.629 -3.90196,-1.61946 -2.2851,0.01 -4.04394,1.65303 -1.73299,1.6173 -2.11174,4.16371 z m 18.55931,10.54229 q -2.24464,3.43719 -5.17157,5.18937 -2.92702,1.72621 -6.51047,1.74135 -5.79063,0.0245 -9.44291,-3.9591 -3.62641,-4.00964 -3.65383,-10.50139 -0.0257,-6.10224 3.43713,-10.06392 3.48888,-3.96178 8.81211,-3.98427 5.68676,-0.024 9.15847,4.24594 3.4716,4.24401 3.50176,11.38492 l 9.1e-4,0.31161 -18.67026,0.0789 q 0.32498,3.16665 2.28051,5.05402 1.98139,1.86129 4.94163,1.84878 1.94752,-0.008 3.68281,-1.08022 1.73529,-1.072 2.81801,-2.94622 z" />
      <path
         id="path960"
         style="font-style:normal;font-variant:normal;font-weight:normal;font-stretch:normal;font-size:58.66666794px;line-height:62.00000048%;font-family:'Gothic725 Bd BT';-inkscape-font-specification:'Gothic725 Bd BT, Normal';font-variant-ligatures:normal;font-variant-caps:normal;font-variant-numeric:normal;font-feature-settings:normal;text-align:center;letter-spacing:0px;word-spacing:0px;writing-mode:lr-tb;text-anchor:middle;fill:#ffffff;fill-opacity:1;stroke:none;stroke-width:1.00356889px;stroke-linecap:butt;stroke-linejoin:miter;stroke-opacity:1"
         d="m 935.82847,-221.22874 -2.44058,-26.94755 5.71537,-0.51763 0.22953,2.53442 q 1.4417,-1.64284 3.26165,-2.5638 1.81762,-0.94682 3.98997,-1.14356 4.13783,-0.37476 6.77247,1.94184 2.63229,2.29072 3.03047,6.68715 l 1.63017,17.99952 -5.71537,0.51763 -1.53413,-16.9392 q -0.23656,-2.612 -1.52212,-3.85139 -1.28555,-1.23939 -3.50963,-1.03796 -2.612,0.23656 -4.26068,2.18494 -1.62282,1.94605 -1.37924,4.63563 l 1.44748,15.98233 z" />
      <path
         id="path962"
         style="font-style:normal;font-variant:normal;font-weight:normal;font-stretch:normal;font-size:58.66666794px;line-height:62.00000048%;font-family:'Gothic725 Bd BT';-inkscape-font-specification:'Gothic725 Bd BT, Normal';font-variant-ligatures:normal;font-variant-caps:normal;font-variant-numeric:normal;font-feature-settings:normal;text-align:center;letter-spacing:0px;word-spacing:0px;writing-mode:lr-tb;text-anchor:middle;fill:#ffffff;fill-opacity:1;stroke:none;stroke-width:1.00356889px;stroke-linecap:butt;stroke-linejoin:miter;stroke-opacity:1"
         d="m 963.49607,-224.24364 -4.47055,-26.68597 5.7111,-0.95674 0.64784,3.86715 q 0.9499,-2.50241 2.56243,-3.87837 1.63385,-1.40586 4.04122,-1.80916 0.43537,-0.073 0.64455,-0.0817 0.20488,-0.0344 0.41834,-0.0174 l 1.06401,6.35137 q -0.17927,0.03 -0.40976,0.0686 -0.23479,0.013 -0.69577,0.0902 -3.35495,0.56204 -5.03949,2.60829 -1.68884,2.02064 -1.20402,4.91461 l 2.44121,14.57228 z" />
      <path
         id="path964"
         style="font-style:normal;font-variant:normal;font-weight:normal;font-stretch:normal;font-size:58.66666794px;line-height:62.00000048%;font-family:'Gothic725 Bd BT';-inkscape-font-specification:'Gothic725 Bd BT, Normal';font-variant-ligatures:normal;font-variant-caps:normal;font-variant-numeric:normal;font-feature-settings:normal;text-align:center;letter-spacing:0px;word-spacing:0px;writing-mode:lr-tb;text-anchor:middle;fill:#ffffff;fill-opacity:1;stroke:none;stroke-width:1.00356889px;stroke-linecap:butt;stroke-linejoin:miter;stroke-opacity:1"
         d="m 981.77628,-241.36106 q 0.98134,3.87667 3.32971,5.74654 2.37355,1.86351 5.31882,1.11794 2.94526,-0.74556 4.12114,-3.50755 1.20104,-2.76837 0.2197,-6.64505 -0.98771,-3.90184 -3.32971,-5.74654 -2.34838,-1.86987 -5.31882,-1.11794 -2.94526,0.74556 -4.13993,3.5391 -1.17587,2.762 -0.20091,6.6135 z m 10.00583,12.22637 q -5.51293,1.39554 -9.8987,-1.53897 -4.36698,-2.96607 -5.94732,-9.20903 -1.57396,-6.21778 0.86221,-10.87919 2.46134,-4.66779 7.97427,-6.06332 5.51293,-1.39554 9.87353,1.54535 4.3606,2.94089 5.9346,9.15868 1.5676,6.1926 -0.88104,10.91073 -2.4298,4.68659 -7.91755,6.07575 z" />
      <path
         id="path966"
         style="font-style:normal;font-variant:normal;font-weight:normal;font-stretch:normal;font-size:58.66666794px;line-height:62.00000048%;font-family:'Gothic725 Bd BT';-inkscape-font-specification:'Gothic725 Bd BT, Normal';font-variant-ligatures:normal;font-variant-caps:normal;font-variant-numeric:normal;font-feature-settings:normal;text-align:center;letter-spacing:0px;word-spacing:0px;writing-mode:lr-tb;text-anchor:middle;fill:#ffffff;fill-opacity:1;stroke:none;stroke-width:1.00356889px;stroke-linecap:butt;stroke-linejoin:miter;stroke-opacity:1"
         d="m 1020.0742,-253.10835 q -1.5712,-4.12536 -3.703,-5.56416 -2.1076,-1.44804 -4.971,-0.35745 -2.8878,1.09982 -3.6853,3.82102 -0.7733,2.71196 0.687,6.54612 1.451,3.80988 3.8417,5.34461 2.4057,1.50122 5.2934,0.40139 2.8635,-1.09058 3.4738,-3.57376 0.6346,-2.49242 -0.9366,-6.61777 z m 4.806,12.61873 -0.8503,-2.23255 q -0.7258,1.88807 -2.0594,3.20181 -1.3428,1.28945 -3.4298,2.08428 -4.8533,1.84846 -9.1817,-0.61548 -4.3134,-2.49743 -6.587,-8.46707 -2.2829,-5.99389 -0.7144,-10.70369 1.5927,-4.71903 6.446,-6.56749 2.087,-0.79483 3.9474,-0.72536 1.8604,0.0694 3.6675,1.02063 l -4.6026,-12.08486 5.3629,-2.04253 13.3643,35.08977 z" />
      <path
         id="path968"
         style="font-style:normal;font-variant:normal;font-weight:normal;font-stretch:normal;font-size:58.66666794px;line-height:62.00000048%;font-family:'Gothic725 Bd BT';-inkscape-font-specification:'Gothic725 Bd BT, Normal';font-variant-ligatures:normal;font-variant-caps:normal;font-variant-numeric:normal;font-feature-settings:normal;text-align:center;letter-spacing:0px;word-spacing:0px;writing-mode:lr-tb;text-anchor:middle;fill:#ffffff;fill-opacity:1;stroke:none;stroke-width:1.00356889px;stroke-linecap:butt;stroke-linejoin:miter;stroke-opacity:1"
         d="m 1031.9819,-262.08956 10.4413,-5.80181 q -1.4403,-2.11093 -3.6523,-2.72363 -2.2246,-0.63541 -4.1994,0.46189 -1.9974,1.10991 -2.7463,3.39757 -0.7388,2.25235 0.1567,4.66598 z m 21.3426,0.29084 q -0.3099,4.09349 -2.0298,7.03952 -1.7325,2.92332 -4.8649,4.66386 -5.0617,2.81261 -10.1818,1.08283 -5.1101,-1.7651 -8.2632,-7.4397 -2.964,-5.33413 -1.8395,-10.47438 1.1471,-5.15286 5.8003,-7.73846 4.971,-2.76216 10.0709,-0.6944 5.0874,2.04506 8.5559,8.28713 l 0.1513,0.27238 -16.3201,9.06847 q 1.8111,2.61786 4.4342,3.32889 2.6332,0.67573 5.2208,-0.7621 1.7024,-0.94595 2.7061,-2.72164 1.0036,-1.77568 1.0488,-3.93969 z" />
    </g>
    <path
       style="color:#000000;font-style:normal;font-variant:normal;font-weight:normal;font-stretch:normal;font-size:medium;line-height:normal;font-family:sans-serif;font-variant-ligatures:normal;font-variant-position:normal;font-variant-caps:normal;font-variant-numeric:normal;font-variant-alternates:normal;font-variant-east-asian:normal;font-feature-settings:normal;font-variation-settings:normal;text-indent:0;text-align:start;text-decoration:none;text-decoration-line:none;text-decoration-style:solid;text-decoration-color:#000000;letter-spacing:normal;word-spacing:normal;text-transform:none;writing-mode:lr-tb;direction:ltr;text-orientation:mixed;dominant-baseline:auto;baseline-shift:baseline;text-anchor:start;white-space:normal;shape-padding:0;shape-margin:0;inline-size:0;clip-rule:nonzero;display:inline;overflow:visible;visibility:visible;isolation:auto;mix-blend-mode:normal;color-interpolation:sRGB;color-interpolation-filters:linearRGB;solid-color:#000000;solid-opacity:1;vector-effect:none;fill:#ffffff;fill-opacity:1;fill-rule:nonzero;stroke:none;stroke-linecap:round;stroke-linejoin:round;stroke-miterlimit:4;stroke-dasharray:none;stroke-dashoffset:0;stroke-opacity:1;marker:none;paint-order:stroke fill markers;color-rendering:auto;image-rendering:auto;shape-rendering:auto;text-rendering:auto;enable-background:accumulate;stop-color:#000000;stop-opacity:1;opacity:1"
       d="M 172.18164 -2236.7207 A 1.850185 1.850185 0 0 0 171.82227 -2236.6758 C 112.80413 -2223.3496 59.372707 -2219.3384 6.7207031 -2215.7168 A 1.850185 1.850185 0 0 0 5.0019531 -2214.002 L -16.357422 -1914.9492 A 1.850185 1.850185 0 0 0 -16.361328 -1914.8145 C -16.313557 -1883.7735 -7.8548988 -1862.0849 5.4335938 -1845.0664 C 18.774586 -1827.9805 37.487798 -1815.4768 58.517578 -1805.1289 C 96.559604 -1786.4098 141.26352 -1776.4705 171.08984 -1753.1426 A 1.850185 1.850185 0 0 0 173.36914 -1753.1426 C 203.19545 -1776.4705 247.89741 -1786.4098 285.93945 -1805.1289 C 306.96921 -1815.4768 325.68443 -1827.9804 339.02539 -1845.0664 C 352.31389 -1862.0849 360.77065 -1883.7735 360.81836 -1914.8145 A 1.850185 1.850185 0 0 0 360.81445 -1914.9492 L 339.45508 -2214.002 A 1.850185 1.850185 0 0 0 337.73633 -2215.7168 C 285.08431 -2219.3384 231.65485 -2223.3496 172.63672 -2236.6758 A 1.850185 1.850185 0 0 0 172.18164 -2236.7207 z M 172.23047 -2232.9805 C 230.79833 -2219.7931 283.84296 -2215.7311 335.87695 -2212.1445 L 357.11719 -1914.7676 C 357.06079 -1884.4207 348.92342 -1863.7571 336.10742 -1847.3438 C 323.26159 -1830.8919 305.05433 -1818.6593 284.30469 -1808.4492 C 247.27436 -1790.228 203.01728 -1780.3455 172.22852 -1756.8438 C 141.43979 -1780.3449 97.182188 -1790.2282 60.152344 -1808.4492 C 39.402684 -1818.6593 21.195477 -1830.8919 8.3496094 -1847.3438 C -4.466376 -1863.7571 -12.603695 -1884.4207 -12.660156 -1914.7676 L 8.5800781 -2212.1445 C 60.614624 -2215.7311 113.66185 -2219.7927 172.23047 -2232.9805 z "
       id="path972" />
    <g
       style="stroke-width:1.20684707"
       transform="matrix(9.7618366,0,0,9.7618366,-10197.818,9977.3145)"
       id="g980">
      <g
         transform="matrix(0.19260489,0,0,0.19260489,838.92015,-983.07236)"
         id="g978">
        <path
           id="path974"
           d="m 1178.1797,-1289.9746 c -0.3481,-0.01 -0.7016,0.021 -1.0488,0.1 v -0.01 a 3.50035,3.50035 0 0 0 -1.0625,0.4414 c -0.719,0.3478 -1.3173,0.7624 -1.7852,1.1894 -0.4374,0.3992 -1.237,1.2977 -1.6367,2.3262 -0.1284,0.3303 -0.1167,0.7154 -0.1953,1.0449 -0.044,0 -0.095,-0.028 -0.1387,-0.031 -1.1587,-0.076 -2.2774,0.049 -3.4062,0.3594 -1.1287,0.3106 -2.3065,0.7177 -3.4355,1.9746 -0.078,0.087 -0.1552,0.2906 -0.2364,0.4023 -0.6963,-0.118 -1.2519,-0.1144 -1.584,-0.1094 a 3.50035,3.50035 0 0 0 -0.8359,0.127 c -1.7284,0.1614 -3.346,0.6399 -4.75,1.4609 -1.6352,0.9563 -3.2256,2.2367 -3.8086,4.6153 -0.027,0.1121 4e-4,0.1694 -0.018,0.2754 -0.01,10e-5 -0.015,0 -0.022,0 -3.5387,0.055 -5.9383,1.9373 -8.2968,3.955 -1.1797,1.0092 -2.2474,2.1095 -3.1153,3.3184 -0.7501,1.0448 -1.3775,2.2225 -1.5547,3.8144 -0.388,0.1005 -0.8445,0.1122 -1.2031,0.2403 -3.5244,1.259 -6.643,3.8526 -9.1679,6.6543 -1.2625,1.4009 -2.3452,2.8494 -3.1387,4.3691 -0.7615,1.4584 -1.4337,3.0515 -0.9571,5.1914 -1.1352,0.9205 -1.8038,1.967 -2.5761,3.2149 -1.7863,2.8862 -2.41,5.3732 -2.3887,9.8008 0.015,3.0687 0.2252,5.4642 0.9277,7.5312 0.2675,0.7873 0.6911,1.5701 1.3418,2.3242 -0.7993,1.8348 -1.0288,3.9277 -0.7949,5.9043 0.4081,3.4475 1.9277,7.0362 4.4473,10.2071 2.2993,2.8938 5.1366,5.4883 7.959,7.4589 2.8224,1.9706 5.3384,3.5363 8.6172,3.4864 0.052,-8e-4 0.1644,-0.047 0.2207,-0.049 0.2785,0.5675 0.5863,1.1397 1.3242,1.7266 3.3182,2.6376 7.5134,2.5819 14.6445,2.2305 5.1676,-0.2548 8.2637,-0.8347 12.0039,-2.2911 3.7852,-1.4737 6.3375,-2.471 8.1328,-5.1347 0.3265,-0.4845 0.4399,-1.2336 0.5606,-1.9492 1.5019,-0.4353 2.854,-1.2074 3.9043,-2.1895 1.1122,-1.0399 1.7923,-2.1471 2.6386,-3.5586 0.8462,-1.4115 1.7195,-3.0594 2.5547,-4.7871 1.6704,-3.4553 3.1727,-7.0537 3.8028,-9.9453 0.4396,-2.0175 0.5484,-4.0324 0.373,-5.8613 -0.088,-0.9145 -0.2376,-1.7783 -0.5547,-2.6641 -0.2306,-0.644 -0.6573,-1.3693 -1.3554,-2.0625 0.1629,-0.6907 0.2233,-1.3648 0.2187,-1.8848 -0.047,-4.9482 -3.3357,-9.2689 -8.1504,-14.3535 -0.4729,-0.4994 -1.0339,-0.7696 -1.5547,-1.1484 0.024,-0.1145 0.057,-0.2356 0.08,-0.3594 0.1127,-0.6018 0.2274,-1.3563 0.3555,-2.2851 0.2563,-1.8576 0.5524,-4.3735 0.8379,-7.1543 0.838,-8.1634 1.1785,-13.7571 0.8613,-17.9102 -0.3172,-4.153 -1.5007,-7.541 -4.3691,-9.25 a 3.50035,3.50035 0 0 0 -0.01,0 c -0.6161,-0.3654 -1.61,-0.7312 -2.6543,-0.7578 z m 0,3.4746 c 0.2758,0 0.5519,0.1032 0.8653,0.2891 3.0371,1.8094 3.4792,7.6155 1.8183,23.7949 -0.5643,5.4963 -1.1796,9.9556 -1.3691,9.9062 -0.1894,-0.049 -1.142,-0.1977 -2.1172,-0.3281 l -1.7754,-0.2383 -0.1426,-15.6953 c -0.1367,-15.0398 -0.086,-15.7426 1.1739,-16.8926 0.5015,-0.4578 0.8967,-0.7199 1.2695,-0.8047 0.093,-0.021 0.1854,-0.032 0.2773,-0.031 z m -6.1054,5.082 c 0.8416,0.055 1.5197,0.2971 1.7031,0.7539 0.1777,0.4419 0.2987,6.6641 0.2676,13.8243 l -0.059,13.0156 -2.0235,-0.7774 c -2.0201,-0.7779 -2.0205,-0.7788 -2.5253,-6.9746 -0.2779,-3.4094 -0.9361,-8.7442 -1.4629,-11.8515 -0.8691,-5.1266 -0.8573,-5.7543 0.09,-6.8086 0.7546,-0.8401 2.6071,-1.2735 4.0098,-1.1817 z m -8.3809,2.6348 c 2.1859,-0.033 2.1072,-0.2483 3.7168,9.7637 0.5587,3.4759 1.0313,8.1019 1.0527,10.2793 l 0.043,3.957 -2.2129,0.031 c -2.1175,0.032 -2.2481,-0.1029 -3.248,-3.371 -0.5734,-1.8742 -1.0412,-3.5829 -1.043,-3.793 0,-0.2101 -1.0696,-2.9518 -2.3691,-6.0938 -1.533,-3.7068 -2.2293,-6.2456 -1.9864,-7.2363 0.4403,-1.7966 3.3436,-3.4962 6.0469,-3.5371 z m -9.4336,6.4746 c 1.4917,-0.024 2.0786,0.451 3.2285,2.6133 1.7952,3.3752 3.7946,8.8658 4.5118,12.3711 l 0.5625,2.7383 -2.6524,1.1601 c -5.351,2.3437 -5.0205,2.4382 -8.4336,-2.3613 -1.7186,-2.4168 -3.966,-5.0757 -4.998,-5.9082 -1.0322,-0.8324 -1.8811,-1.8877 -1.8828,-2.3457 -0.014,-2.7697 6.3556,-8.2175 9.664,-8.2676 z m -11.0898,10.707 c 1.786,-0.011 3.2586,1.3116 6.2793,5.0098 3.2664,3.9991 4.1901,6.3962 2.8515,7.4121 -0.4868,0.3694 -1.0748,1.1777 -1.3047,1.7988 -0.2301,0.6212 -0.9307,1.3181 -1.5566,1.5469 -0.6258,0.2289 -1.5722,0.7937 -2.1074,1.2539 -0.656,0.5641 -1.2887,0.6459 -1.9336,0.2461 -1.9785,-1.2262 -11.6685,-3.7225 -13.2227,-3.4062 -1.2979,0.2642 -1.6965,0.029 -2.0175,-1.1817 -0.7902,-2.9796 5.924,-10.4316 11.0527,-12.2636 0.7336,-0.2621 1.3638,-0.4126 1.959,-0.4161 z m 24.7539,8.2266 c 0.7543,-0.014 1.4787,0.017 2.1543,0.1074 5.1658,0.6829 5.6161,2.0833 2.8496,8.7442 -1.2244,2.9481 -1.3434,3.041 -3.2754,2.5918 -1.1026,-0.2562 -3.0165,-0.4416 -4.2559,-0.4122 -1.2394,0.03 -3.1464,0.5075 -4.2343,1.0626 -1.8933,0.9662 -2.0599,0.9397 -3.9141,-0.6036 -1.0654,-0.8868 -2.788,-2.2098 -3.832,-2.9375 l -1.9024,-1.3203 1.5196,-1.6504 c 2.7971,-3.0418 9.6108,-5.4942 14.8906,-5.582 z m 9.8008,2.3926 c 1.1241,-0.011 3.1688,1.0201 4.3593,2.2773 4.5482,4.8032 7.1644,9.164 7.1914,11.9805 0.015,1.7073 -0.3453,2.1323 -2.7109,3.1914 -1.4993,0.6711 -4.0562,1.4297 -5.6855,1.6894 -2.8937,0.4613 -2.9726,0.4292 -3.3594,-1.3867 -0.218,-1.0224 -1.4276,-3.1585 -2.6934,-4.7519 l -2.3008,-2.8965 1.1934,-2.0938 c 0.6599,-1.1494 1.5603,-3.3375 1.9981,-4.8613 0.4376,-1.5237 1.1527,-2.9107 1.5878,-3.082 0.1184,-0.046 0.2595,-0.064 0.42,-0.066 z m -46.4727,4.7441 c 0.3138,0 0.6673,0 1.0703,0 2.9608,0.029 10.2707,1.8796 12.3106,3.1152 0.6605,0.4001 0.6412,0.9439 -0.1,2.7363 -0.5082,1.2303 -1.1028,3.6941 -1.3262,5.4746 -0.4007,3.1922 -0.4429,3.2413 -3.0078,3.7071 -1.4306,0.2598 -4.5053,1.1551 -6.8301,1.9843 -2.3247,0.8294 -4.7273,1.7133 -5.3399,1.9688 -1.6838,0.7024 -2.6972,-2.2854 -2.7246,-8.0156 -0.021,-4.3073 0.1986,-5.2506 1.8653,-7.9434 1.6374,-2.6457 1.8855,-3.0027 4.082,-3.0293 z m 19.1875,1.9766 c 0.1429,-0.01 0.2901,-0.01 0.4453,0.016 v 0 c 0.6237,0.083 1.3912,0.4177 2.6504,1.0527 1.5812,0.7975 2.7237,1.6031 2.541,1.7872 -0.1828,0.1838 0.1658,0.8569 0.7715,1.5 1.0345,1.098 1.0343,1.2824 0.027,3.0019 -0.59,1.0067 -1.0622,3.0845 -1.0488,4.6172 0.021,2.3208 0.3862,3.1201 2.1699,4.7793 1.7291,1.6087 2.6697,1.9827 4.8887,1.9492 3.44,-0.052 4.9428,-0.8517 6.2051,-3.3144 1.8669,-3.6427 -0.9798,-8.1659 -5.1036,-8.1036 -2.5855,0.039 -4.9768,2.6346 -4.8593,5.2735 l 0.09,2.082 0.4297,-2.2422 c 0.5867,-3.095 0.9729,-3.5735 3.3223,-4.0722 3.1199,-0.6622 5.0676,0.8415 5.0957,3.9335 0.024,2.6914 -1.0976,4.2608 -3.4961,4.8907 -3.5181,0.924 -6.7807,-1.656 -6.8145,-5.3926 -0.046,-5.1343 2.8559,-7.9052 8.3555,-7.9883 7.7055,-0.1167 12.1808,8.5981 8.4316,16.418 -1.6646,3.4717 -5.558,7.0199 -8.6992,7.9277 -2.3823,0.6886 -8.1239,0.9018 -10.918,0.4063 -2.7944,-0.4956 -6.5059,-4.349 -8.291,-8.6133 -3.1603,-7.5496 -1.959,-17.0293 2.459,-19.4336 0.5158,-0.2807 0.915,-0.4451 1.3457,-0.4746 z m 39.2969,11.5918 c 0.096,0 0.1671,0.018 0.209,0.043 1.0836,0.6389 1.4387,4.3403 0.7285,7.5997 -0.983,4.511 -5.7837,14.4372 -7.9668,16.4785 -2.2282,2.0834 -3.6431,2.1739 -7.0274,0.4492 -2.5856,-1.3176 -4.1483,-2.7168 -5.9961,-5.3809 -0.9419,-1.358 -0.8667,-1.55 1.5469,-3.8261 3.0573,-2.8833 5.6635,-7.2831 6.2364,-10.5313 0.3402,-1.9299 0.7013,-2.3838 1.8925,-2.4023 0.8087,-0.014 3.3827,-0.6383 5.7227,-1.3868 1.7551,-0.5614 3.4262,-0.9527 4.293,-1.0312 0.1444,-0.013 0.2651,-0.016 0.3613,-0.012 z m -47.3477,2.8125 c 0.6616,0.085 0.7991,0.4846 1.0274,1.375 0.6534,2.5499 3.4479,8.389 4.6015,9.6133 0.9603,1.0193 0.932,1.4505 -0.3613,5.414 -0.7725,2.3677 -1.5452,5.9469 -1.7187,7.9531 -0.276,3.1889 -0.4907,3.6476 -1.6875,3.6661 -3.2216,0.049 -9.6801,-4.4611 -13.7832,-9.625 -4.25,-5.3486 -5.0796,-12.363 -1.7032,-14.3868 2.6476,-1.587 7.0899,-3.1076 10.8438,-3.7168 0.8221,-0.1336 1.4423,-0.232 1.9218,-0.2793 0.3597,-0.035 0.6389,-0.042 0.8594,-0.014 z m 8.3399,13.4844 c 0.2823,-0.038 0.5802,0.2667 0.9961,0.8085 1.2067,1.5719 7.5804,2.4644 11.5019,1.6094 l 3.3867,-0.7422 3.4375,3.6446 c 1.9102,2.0238 4.4331,3.9804 5.6758,4.4023 4.251,1.4432 2.589,3.9112 -4.4961,6.6699 -3.4764,1.3536 -5.8949,1.8096 -10.9062,2.0567 -6.9234,0.3412 -10.5635,-0.098 -12.295,-1.4746 -1.4692,-1.1687 -0.9977,-8.3657 0.8809,-13.4336 0.9128,-2.4627 1.3481,-3.4782 1.8184,-3.541 z"
           style="color:#000000;font-style:normal;font-variant:normal;font-weight:normal;font-stretch:normal;font-size:medium;line-height:normal;font-family:sans-serif;font-variant-ligatures:normal;font-variant-position:normal;font-variant-caps:normal;font-variant-numeric:normal;font-variant-alternates:normal;font-feature-settings:normal;text-indent:0;text-align:start;text-decoration:none;text-decoration-line:none;text-decoration-style:solid;text-decoration-color:#000000;letter-spacing:normal;word-spacing:normal;text-transform:none;writing-mode:lr-tb;direction:ltr;text-orientation:mixed;dominant-baseline:auto;baseline-shift:baseline;text-anchor:start;white-space:normal;shape-padding:0;clip-rule:nonzero;display:inline;overflow:visible;visibility:visible;opacity:1;isolation:auto;mix-blend-mode:normal;color-interpolation:sRGB;color-interpolation-filters:linearRGB;solid-color:#000000;solid-opacity:1;vector-effect:none;fill:#ffffff;fill-opacity:1;fill-rule:nonzero;stroke:none;stroke-width:8.44792938;stroke-linecap:round;stroke-linejoin:round;stroke-miterlimit:4;stroke-dasharray:none;stroke-dashoffset:0;stroke-opacity:1;marker:none;paint-order:stroke fill markers;color-rendering:auto;image-rendering:auto;shape-rendering:auto;text-rendering:auto;enable-background:accumulate" />
        <path
           id="path976"
           d="m 1148.8574,-1335.5254 c -10.9914,17.6251 2.5286,20.8027 0.1016,42.8848 10.624,-21.7627 -2.5256,-22.4199 -0.1016,-42.8848 z m 11.1485,1.168 c 9.3255,18.1833 11.422,32.2368 4.8261,41.3222 -0.8336,-15.6144 -4.1273,-19.2284 -12.3574,-28.8574 3.4504,8.8806 7.4051,17.7789 -4.2305,38.2071 -5.9802,-6.8962 -1.9039,-15.9812 -2.5644,-21.793 -7.9294,11.1827 -6.139,23.0492 -7.4981,28.0644 -0.6836,-2.8245 -1.8177,-7.2828 -4.6425,-11.7773 -0.3319,10.8875 -2.5857,12.4719 -4.2227,15.6094 -6.2792,-4.5057 -8.4115,-14.01 -4.9766,-27.9746 -16.297,22.7178 -2.8014,36.8569 -10.0273,54.8183 -5.144,-4.3383 -4.8554,-19.2816 -4.3125,-28.3906 -14.1224,51.7469 2.8199,61.9281 13.5469,66.5293 -4.5007,-4.4867 -13.9436,-15.6894 -12.5274,-31.3496 2.5328,6.5061 5.5215,11.1726 8.541,13.1289 -0.6924,-2.1023 -0.9342,-4.1566 -1.0136,-6.4961 -0.842,-11.66 5.519,-24.5712 4.707,-36.3301 1.5069,3.8022 3.2136,6.9822 5.0293,9.7617 0.044,-0.05 0.086,-0.1006 0.1309,-0.1504 2.7023,-2.9986 5.8555,-5.7199 10.0273,-7.3339 0.4611,-1.2288 1.0589,-2.236 1.6719,-3.0899 1.0763,-1.4993 2.3033,-2.7499 3.6504,-3.9023 2.1637,-1.8512 4.2331,-3.6548 7.6836,-4.3633 3.1552,-4.0057 5.7955,-8.9885 7.4277,-15.5313 0.8438,3.2632 1.1376,6.3811 1.0391,9.3164 0.6738,-0.1698 1.3612,-0.3127 2.0761,-0.4043 0.5231,-0.1431 1.0615,-0.2232 1.6036,-0.2382 0.079,-10e-4 0.3239,-0.01 0.4531,-0.023 1.4235,-1.1962 2.7707,-1.7951 3.9765,-2.1269 0.6742,-0.185 1.3575,-0.128 2.0176,-0.211 0.6701,-1.2211 1.5614,-2.3349 2.0098,-2.7441 0.2032,-0.1855 0.4758,-0.3884 0.748,-0.5898 2.0115,-6.6102 3.4734,-14.3313 1.5625,-25.6582 7.9834,10.6605 9.6094,18.1937 8.7754,25.2871 3.6744,2.5598 5.0275,7.0862 5.3594,11.4316 0.3499,4.58 -0.024,10.2652 -0.8691,18.498 -0.2887,2.8116 -0.5873,5.3539 -0.8516,7.2696 -0.043,0.3126 -0.084,0.5182 -0.125,0.7969 0.1199,0.1181 0.2517,0.1492 0.3711,0.2753 5.0661,5.3501 8.9857,9.6337 9.0527,16.5918 10e-4,0.1536 -0.076,0.4693 -0.086,0.6602 0.126,0.1889 0.2347,0.3746 0.334,0.5586 3.0501,-4.2367 5.6383,-8.8055 6.6504,-10.7266 2.6591,14.847 -6.0579,30.2476 -11.3262,38.0176 36.9846,-29.481 5.3157,-54.4792 11.5078,-75.0234 -5.9851,8.6208 -1.5283,25.6356 -9.1133,30.3965 -4.508,-21.691 8.1778,-30.9364 8.3106,-45.834 -2.6352,5.0109 -5.0377,9.8321 -8.002,11.6269 1.9789,-11.1608 5.0418,-22.1849 -5.0859,-38.5 1.3642,7.3113 1.9403,14.4707 -1.6172,20.961 -6.512,-17.0504 -16.3434,-23.0409 -27.6406,-29.709 z m -31.7559,18.6484 c 2.5394,17.2387 -7.7921,18.2317 1.2422,36.2969 -2.5915,-18.6072 7.9538,-21.7456 -1.2422,-36.2969 z m 78.5098,12.002 c 4.4534,21.5254 -6.5204,23.5261 4.9765,45.6211 -4.647,-23.245 6.3407,-27.963 -4.9765,-45.6211 z"
           style="fill:#ffffff;fill-rule:evenodd;stroke:none;stroke-width:5.43081188;stroke-linecap:round;stroke-linejoin:round;stroke-miterlimit:4;stroke-dasharray:none;stroke-opacity:1" />
      </g>
    </g>
  </g>
</svg>
